<svg width="17" height="18" viewBox="0 0 17 18" fill="none" xmlns="http://www.w3.org/2000/svg">
<path d="M16.7688 15.5622L13.4582 12.0574C13.3088 11.8992 13.1062 11.8113 12.8937 11.8113H12.3525C13.2689 10.5705 13.8135 9.00967 13.8135 7.31179C13.8135 3.27273 10.7221 0 6.90676 0C3.09144 0 0 3.27273 0 7.31179C0 11.3508 3.09144 14.6236 6.90676 14.6236C8.51058 14.6236 9.98491 14.0471 11.1571 13.0768V13.6498C11.1571 13.8748 11.2401 14.0892 11.3895 14.2474L14.7001 17.7522C15.0122 18.0826 15.517 18.0826 15.8258 17.7522L16.7655 16.7573C17.0776 16.4269 17.0776 15.8926 16.7688 15.5622ZM6.90676 11.8113C4.55912 11.8113 2.65644 9.8006 2.65644 7.31179C2.65644 4.82648 4.5558 2.81223 6.90676 2.81223C9.25439 2.81223 11.1571 4.82297 11.1571 7.31179C11.1571 9.79709 9.25771 11.8113 6.90676 11.8113Z" fill="#868181"/>
</svg>
